<?xml version="1.0" encoding="utf-8"?>
<!-- Generator: Adobe Illustrator 19.0.0, SVG Export Plug-In . SVG Version: 6.00 Build 0)  -->
<svg version="1.1" id="Capa_1" xmlns="http://www.w3.org/2000/svg" xmlns:xlink="http://www.w3.org/1999/xlink" x="0px" y="0px"
	 viewBox="0 0 640 288.6" style="enable-background:new 0 0 640 288.6;" xml:space="preserve">
<style type="text/css">
	.st0{fill:#392100;}
	.st1{fill:#BFA400;}
</style>
<path id="XMLID_161_" class="st0" d="M241.6,166.7h-40.3v21.4h32.9l-1.5,14.5h-31.5v21.5H244v16.7h-61.1v-74.1l-1.3-14.5H243
	L241.6,166.7z"/>
<path id="XMLID_159_" class="st0" d="M267.8,219.4c0.3,2.2,0.9,3.9,1.7,5.1c0.9,1.2,2.1,1.8,3.7,1.8c1.7,0,3.5-0.4,5.5-1.2
	c1.9-0.8,3.4-1.6,4.3-2.4l3.8,8.8c-2.3,2.7-5.2,5-8.6,6.7c-3.4,1.7-6.9,2.6-10.3,2.6c-5,0-8.9-1.2-11.6-3.6
	c-2.7-2.4-4.5-5.5-5.4-9.2c-0.9-3.7-1.3-8-1.3-12.8l-0.1-62.5l17.8-1.8v59.5C267.4,214.2,267.5,217.2,267.8,219.4z"/>
<path id="XMLID_155_" class="st0" d="M332.1,223.8c2.4,1.9,5.9,2.8,10.4,2.8c1.8,0,3.6-0.1,5.2-0.3c3.4-0.4,7.1-1.2,10.9-2.5
	c3.9-1.2,7-2.3,9.4-3.3l2.7,10.9c-1.3,1.2-3.5,2.5-6.6,4s-6.7,2.8-10.8,3.9c-4.1,1.1-8.2,1.6-12.3,1.6c-7.5,0-13.6-1.3-18.1-3.8
	c-4.5-2.5-7.8-6.3-9.7-11.4c-2-5.1-3-11.7-3-19.8c0-7.5,1-13.6,3-18.3c2-4.7,5.3-8.3,9.8-10.7c4.5-2.4,10.6-3.5,18.2-3.5
	c8.6,0,15.4,1.9,20.6,5.7s7.9,9.7,8.3,17.8c0.1,1,0.1,2.4,0.1,4.2c0,2.3-0.1,4.4-0.3,6.3c-0.2,1.9-0.3,3.1-0.4,3.6l-41.1,2.4
	C328.4,218.5,329.6,222,332.1,223.8z M352.8,197.5c0-6.7-3.9-10.1-11.8-10.1c-3.9,0-6.9,1.1-9,3.1c-2.1,2.1-3.3,5.3-3.6,9.6
	l24.3-0.9C352.8,198.8,352.8,198.3,352.8,197.5z"/>
<path id="XMLID_152_" class="st0" d="M396.6,241.1c-8.8,0-14.8-3.5-18-10.4c-3.2-7-4.7-14.9-4.7-23.8c0-10.3,1.9-18.4,5.8-24.4
	c3.9-6,10.3-9,19.3-9c2.8,0,5.7,0.6,8.5,1.9c2.8,1.2,5.2,2.7,7.2,4.4v-26.5l17.8-1.6V212c0,5,0.5,8.6,1.3,10.9s2.4,3.4,4.6,3.4
	c1.7,0,3.7-0.5,5.9-1.4c2.2-0.9,3.7-1.8,4.6-2.5l3.8,8.9c-2.3,2.8-5.3,5.1-8.9,6.9c-3.6,1.9-7.1,2.8-10.6,2.8
	c-8.3,0-13.8-3.7-16.5-11.1c-2,3.2-4.6,5.8-7.5,7.8c-3,2-6.4,3.1-10.3,3.2C398.4,241,397.6,241.1,396.6,241.1z M403.4,188.2
	c-3,0-5.4,1.1-7.2,3.3c-1.8,2.2-3,4.7-3.7,7.7s-1,5.9-1,8.7c0.1,4.9,1,9,2.7,12.4c1.7,3.4,4.2,5.3,7.6,5.8l0.9,0.1
	c2.3,0,4.5-0.7,6.7-2.2c2.2-1.5,3.9-3.3,5.2-5.4v-25.1C411.4,189.9,407.7,188.2,403.4,188.2z"/>
<path id="XMLID_104_" class="st0" d="M473.7,223.8c2.4,1.9,5.9,2.8,10.4,2.8c1.8,0,3.6-0.1,5.2-0.3c3.4-0.4,7.1-1.2,10.9-2.5
	c3.9-1.2,7-2.3,9.4-3.3l2.7,10.9c-1.3,1.2-3.5,2.5-6.6,4c-3.1,1.5-6.7,2.8-10.8,3.9c-4.1,1.1-8.2,1.6-12.3,1.6
	c-7.5,0-13.6-1.3-18.1-3.8c-4.5-2.5-7.8-6.3-9.7-11.4c-2-5.1-3-11.7-3-19.8c0-7.5,1-13.6,3-18.3c2-4.7,5.3-8.3,9.8-10.7
	c4.5-2.4,10.6-3.5,18.2-3.5c8.6,0,15.4,1.9,20.6,5.7s7.9,9.7,8.3,17.8c0.1,1,0.1,2.4,0.1,4.2c0,2.3-0.1,4.4-0.3,6.3
	c-0.2,1.9-0.3,3.1-0.4,3.6l-41.1,2.4C470,218.5,471.2,222,473.7,223.8z M494.4,197.5c0-6.7-3.9-10.1-11.8-10.1c-3.9,0-6.9,1.1-9,3.1
	c-2.1,2.1-3.3,5.3-3.6,9.6l24.3-0.9C494.4,198.8,494.4,198.3,494.4,197.5z M488.9,167.9l-14.1,0.4l9.7-16.8l17-0.4L488.9,167.9z"/>
<path id="XMLID_99_" class="st0" d="M553.9,192.2c-1.6-2.7-4.3-4-8.1-4c-2.1,0-4,0.4-5.8,1.3c-1.8,0.8-3.3,1.8-4.4,2.8
	c-1.2,1-1.8,1.6-1.8,1.7v47.8h-17.7V176l17.7-1.7v7.9c0-0.3,1-1.2,2.9-2.7c1.9-1.5,4.3-2.9,7.1-4.1c2.8-1.3,5.8-1.9,8.9-1.9
	c7.6,0,13.1,2.2,16.4,6.7c3.3,4.5,5,11,5,19.7V212c0,3.7,0.2,6.5,0.5,8.5c0.3,2,0.8,3.5,1.7,4.4s2,1.4,3.7,1.4
	c1.6,0,3.1-0.4,4.4-1.1c1.4-0.7,2.4-1.5,3-2.2l3.8,8.9c0,0.2-0.8,1.1-2.5,2.7c-1.6,1.6-3.7,3.1-6.3,4.4c-2.5,1.3-5.3,2-8.3,2
	c-6.8,0-11.5-2.2-14-6.5c-2.5-4.3-3.8-10-3.8-16.9v-13C556.3,199,555.5,194.8,553.9,192.2z"/>
<path id="XMLID_98_" class="st1" d="M127.8,187.3c0.4-16,4.7-30.6,16-42.4c5-5.2,11.2-8.8,17.8-11.8c9.9-4.4,20.4-7,30.9-9.7
	c11.6-3,23.2-5.9,34.6-9.3c10.1-3,19.5-7.5,28.3-13.4c14.8-10,24.1-23.8,28.6-41c2.1-7.8,3.2-15.8,3.5-23.9c0-0.4,0-0.8,0-1.2
	c0-0.1-0.1-0.3-0.2-0.5c-2.2,1.6-4.2,3.2-6.4,4.6c-7.1,4.5-15,7.5-23.1,9.4c-13.6,3.2-27.3,6-41,9c-8.8,1.9-17.5,3.9-26,6.8
	c-0.4,0.2-0.9,0.2-1.7,0.4c0.4-0.5,0.6-0.8,0.8-1c-0.1-0.1-0.2-0.2-0.2-0.2c-0.4,0.2-0.8,0.4-1.1,0.7c-0.5,0.4-0.9,1.1-1.4,1.3
	c-9,3.5-17.6,7.7-24.8,14.3c-7.7,7.1-12.3,15.8-13.9,26.2c-0.4,3-0.6,6-0.8,9.1c0,0.5,0.1,1,0.1,1.8c1.3-1,2.4-1.7,3.5-2.5
	c5.7-4.2,11.9-7.3,18.4-10c13.5-5.6,27.6-9,41.5-13.1c11.3-3.3,22.4-6.9,32.8-12.5c5.4-3,10.4-6.5,14.7-10.9c0.5-0.5,0.9-1,1.3-1.5
	c0.1,0.1,0.3,0.3,0.4,0.4c-2.1,2.2-4,4.5-6.2,6.6c-8,7.6-17.6,12.8-27.8,16.9c-10.9,4.3-21.9,8.3-32.9,12.5
	c-10.8,4.2-21.3,9-30.9,15.7c-9,6.3-16.6,13.8-22.6,23c-0.2,0.3-0.4,0.6-0.6,0.8c0,0.1-0.2,0.1-0.4,0.2c-0.2-2.1-0.5-4.1-0.6-6.2
	c-0.3-5.7-0.9-11.4-0.9-17.1c0.1-10.1,1.8-19.9,6.6-28.9c4.7-9.1,11.6-16,20.3-21.3c11.4-7,24.1-10.7,37.1-13.3
	c7.8-1.6,15.7-2.9,23.7-4.1c13.5-2.1,27.1-3.8,40.2-7.6c8.1-2.3,15.8-5.5,22.2-11.2c0.1-0.1,0.2-0.1,0.5-0.3
	c0.1,0.3,0.2,0.5,0.2,0.8c0.3,13.8-1,27.3-5.9,40.3c-5.3,14.1-14.5,25.1-26.7,33.8c-12,8.5-25.4,14.1-39.2,18.6
	c-11.6,3.7-23.2,7.3-34.8,11c-6.9,2.2-13.5,5.1-19.8,8.9c-9.9,5.9-15.6,14.7-18.1,25.7c-1.1,4.8-1.6,9.6-1.4,14.5c0,0.6,0,1.1,0,1.9
	l4.6,53h-19.5C127.5,240.6,126.3,201.4,127.8,187.3z"/>
<path id="XMLID_2_" class="st0" d="M97.5,238v-43.1H83.7V237c-5.5-0.3-11-0.7-16.5-1l-12.8-0.9l0-16.7c0.3-7.3-0.1-14.4,0-21.7
	c0-7.3,0.2-14.6,0.1-21.9l-0.2-20.4l16.7-14.8L86.4,124l19.3,14.1c7.5,5.5,15.1,10.8,22.9,16c-6.3-6.8-12.8-13.5-19.4-20
	c-6.5-6.6-13.3-12.9-20-19.4l-2.7-2.6l-3.2,2.7c-6.6,5.5-13.3,11-19.9,16.6c-6.5,5.6-13.1,11.2-19.6,16.9l-2,1.8l0,2.8l-0.2,21.9
	c-0.1,7.3,0,14.6,0.1,21.9c0.1,7.3,0,14.6,0.3,21.9l0.6,21.9l0.2,5.7L48,246l19.1-0.9c6.4-0.3,12.8-0.8,19.1-1.1
	c6.4-0.4,12.8-1,19.1-1.5c6.4-0.6,12.8-1.2,19.1-2c-6.4-0.8-12.8-1.4-19.1-2C102.8,238.4,100.2,238.2,97.5,238z"/>
</svg>
